<svg width="55" height="55" viewBox="0 0 55 55" fill="none" xmlns="http://www.w3.org/2000/svg">
<circle cx="27.5" cy="27.5" r="27.5" fill="url(#paint0_linear_133_317)"/>
<path d="M17.5312 20.8571H39.1227C40.4679 20.8571 41.5 21.8678 41.5 23.0357V37.3214C41.5 38.4893 40.4679 39.5 39.1227 39.5H16.625C14.8919 39.5 13.5 38.1181 13.5 36.4286V18.5714C13.5 16.8819 14.8919 15.5 16.625 15.5H37.4688C38.7012 15.5 39.6875 16.4824 39.6875 17.6786C39.6875 17.8887 39.5129 18.0714 39.2812 18.0714H17.5312C16.7614 18.0714 16.125 18.6878 16.125 19.4643C16.125 20.2407 16.7614 20.8571 17.5312 20.8571ZM34.25 30.1786C34.25 31.4478 35.2926 32.4643 36.5625 32.4643C37.8324 32.4643 38.875 31.4478 38.875 30.1786C38.875 28.9094 37.8324 27.8929 36.5625 27.8929C35.2926 27.8929 34.25 28.9094 34.25 30.1786Z" fill="#4194D0" stroke="white"/>
<defs>
<linearGradient id="paint0_linear_133_317" x1="27.5" y1="0" x2="27.5" y2="55" gradientUnits="userSpaceOnUse">
<stop stop-color="#4194D0"/>
<stop offset="0.9999" stop-color="#D9D9D9"/>
</linearGradient>
</defs>
</svg>
